<svg class="plant" height="100%" width="100%" viewBox="-45 -192 200 300" version="1.1" preserveAspectRatio="xMidYMax meet"><defs><linearGradient id="Hzhah" x1="0%" y1="0%" x2="0%" y2="100%"><stop offset="0%" stop-color="rgb(40, 95, 62)"></stop><stop offset="100%" stop-color="rgb(90, 145, 112)"></stop></linearGradient></defs><g transform="translate(0, -220)"><g id="stems" fill="none" stroke="url(#Hzhah)" stroke-width="6" stroke-linecap="round"><path class="growth10" id="grow188" d="M55,225C54.99,224.16666666666666,54.948,221.66666666666666,54.94,220C54.931999999999995,218.33333333333334,54.929,216.66666666666666,54.952,215C54.974999999999994,213.33333333333334,55.032999999999994,211.66666666666666,55.077999999999996,210C55.12299999999999,208.33333333333334,55.157999999999994,206.66666666666666,55.221999999999994,205C55.286,203.33333333333334,55.44,201.66666666666666,55.461999999999996,200C55.484,198.33333333333334,55.393,196.66666666666666,55.354,195C55.315000000000005,193.33333333333334,55.17699999999999,191.66666666666666,55.228,190C55.279,188.33333333333334,55.49800000000001,186.66666666666666,55.660000000000004,185C55.822,183.33333333333334,56.04000000000001,181.66666666666666,56.2,180C56.36000000000001,178.33333333333334,56.44,176.66666666666666,56.620000000000005,175C56.80000000000001,173.33333333333334,57.23,171.66666666666666,57.28,170C57.330000000000005,168.33333333333334,56.849999999999994,166.66666666666666,56.92,165C56.99,163.33333333333334,57.54200000000001,161.66666666666666,57.7,160C57.858000000000004,158.33333333333334,57.84,156.66666666666666,57.868,155C57.89600000000001,153.33333333333334,57.852000000000004,151.66666666666666,57.868,150C57.88400000000001,148.33333333333334,57.863,146.66666666666666,57.964,145C58.065,143.33333333333334,58.281,141.66666666666666,58.474,140C58.667,138.33333333333334,59.05199999999999,136.66666666666666,59.122,135C59.192,133.33333333333334,58.852,131.66666666666666,58.894,130C58.936,128.33333333333334,59.21,126.66666666666667,59.373999999999995,125C59.53799999999999,123.33333333333333,60.01399999999999,121.66666666666667,59.87799999999999,120C59.742,118.33333333333333,58.525,116.66666666666667,58.55799999999999,115C58.59099999999999,113.33333333333333,59.89499999999999,111.66666666666667,60.07599999999999,110C60.257,108.33333333333333,59.71599999999999,106.66666666666667,59.64399999999999,105C59.57199999999998,103.33333333333333,59.53999999999999,101.66666666666667,59.64399999999999,100C59.74799999999998,98.33333333333333,60.35299999999999,96.66666666666667,60.267999999999994,95C60.18299999999999,93.33333333333333,59.40699999999999,91.66666666666667,59.13399999999999,90C58.861,88.33333333333333,58.568999999999996,86.66666666666667,58.629999999999995,85C58.690999999999995,83.33333333333333,59.41499999999999,81.66666666666667,59.49999999999999,80C59.58499999999999,78.33333333333333,59.47899999999999,76.66666666666667,59.13999999999999,75C58.800999999999995,73.33333333333333,57.93699999999999,71.66666666666667,57.465999999999994,70C56.99499999999998,68.33333333333333,56.50599999999999,66.66666666666667,56.31399999999999,65C56.12199999999999,63.333333333333336,56.62,61.666666666666664,56.31399999999999,60C56.00799999999999,58.333333333333336,55.063999999999986,56.666666666666664,54.477999999999994,55C53.891999999999996,53.333333333333336,52.681999999999995,51.666666666666664,52.797999999999995,50C52.91399999999999,48.333333333333336,54.778,45.833333333333336,55.17399999999999,45"></path></g><g id="leaves" opacity="1" transform="translate(-5,0)"><g id="grow189" class="ungrown" data-svg-origin="0 0" style="opacity: 0; fill: rgb(0, 159, 0);" transform="matrix(0,0,0,0,55.17399999999999,45)"><g><path d="M0,3.5 C2,-6.64884814e-14 6,-2 10,3.5 C6,9 2,7 0,3.5 Z" id="Path" fill="rgb(0, 45, 52)" fill-rule="nonzero" transform="translate(5.000000, 3.500000) scale(1, -1) translate(-5.000000, -3.500000) "></path><path d="M0,3.5 C2.66666667,0.833333333 5.33333333,0.833333333 8,3.5 C5.33333333,6.16666667 2.66666667,6.16666667 0,3.5 Z" id="Path" fill="rgb(40, 95, 62)" fill-rule="nonzero" transform="translate(4.000000, 3.500000) scale(1, -1) translate(-4.000000, -3.500000) "></path><path d="M8.82226562,3.5 L0.223510742,3.5" id="Line" stroke="#A5BA80" stroke-width="0.5" stroke-linecap="round" stroke-linejoin="round"></path><path d="M7.80076271,2.76219576 C7.11734736,3.15706509 6.13394225,3.10864081 4.85054738,2.61692291" id="Line" stroke="rgb(90, 145, 112)" stroke-width="0.25" stroke-linecap="round" stroke-linejoin="round" transform="translate(6.325655, 2.821460) rotate(-35.000000) translate(-6.325655, -2.821460) "></path><path d="M6.65094311,4.65649209 C5.99478483,3.88732689 4.87167906,3.80300232 3.28162582,4.4035184" id="Line" stroke="rgb(90, 145, 112)" stroke-width="0.25" stroke-linecap="round" stroke-linejoin="round" transform="translate(4.966284, 4.332540) rotate(32.000000) translate(-4.966284, -4.332540) "></path><path d="M5.04428849,1.4829866 C4.22252558,2.1283566 2.98670756,2.42182405 1.33683443,2.36338894" id="Line" stroke="rgb(90, 145, 112)" stroke-width="0.25" stroke-linecap="round" stroke-linejoin="round" transform="translate(3.190561, 1.926827) rotate(-35.000000) translate(-3.190561, -1.926827) "></path></g></g><g id="grow190" class="ungrown" data-svg-origin="0 0" style="opacity: 0; fill: rgb(0, 141, 0);" transform="matrix(0,0,0,0,52.797999999999995,50)"><g><path d="M0,3.5 C2,-6.64884814e-14 6,-2 10,3.5 C6,9 2,7 0,3.5 Z" id="Path" fill="rgb(0, 45, 52)" fill-rule="nonzero" transform="translate(5.000000, 3.500000) scale(1, -1) translate(-5.000000, -3.500000) "></path><path d="M0,3.5 C2.66666667,0.833333333 5.33333333,0.833333333 8,3.5 C5.33333333,6.16666667 2.66666667,6.16666667 0,3.5 Z" id="Path" fill="rgb(40, 95, 62)" fill-rule="nonzero" transform="translate(4.000000, 3.500000) scale(1, -1) translate(-4.000000, -3.500000) "></path><path d="M8.82226562,3.5 L0.223510742,3.5" id="Line" stroke="#A5BA80" stroke-width="0.5" stroke-linecap="round" stroke-linejoin="round"></path><path d="M7.80076271,2.76219576 C7.11734736,3.15706509 6.13394225,3.10864081 4.85054738,2.61692291" id="Line" stroke="rgb(90, 145, 112)" stroke-width="0.25" stroke-linecap="round" stroke-linejoin="round" transform="translate(6.325655, 2.821460) rotate(-35.000000) translate(-6.325655, -2.821460) "></path><path d="M6.65094311,4.65649209 C5.99478483,3.88732689 4.87167906,3.80300232 3.28162582,4.4035184" id="Line" stroke="rgb(90, 145, 112)" stroke-width="0.25" stroke-linecap="round" stroke-linejoin="round" transform="translate(4.966284, 4.332540) rotate(32.000000) translate(-4.966284, -4.332540) "></path><path d="M5.04428849,1.4829866 C4.22252558,2.1283566 2.98670756,2.42182405 1.33683443,2.36338894" id="Line" stroke="rgb(90, 145, 112)" stroke-width="0.25" stroke-linecap="round" stroke-linejoin="round" transform="translate(3.190561, 1.926827) rotate(-35.000000) translate(-3.190561, -1.926827) "></path></g></g><g id="grow191" class="ungrown" data-svg-origin="0 0" style="opacity: 0; fill: rgb(0, 148, 0);" transform="matrix(0,0,0,0,54.477999999999994,55)"><g><path d="M0,3.5 C2,-6.64884814e-14 6,-2 10,3.5 C6,9 2,7 0,3.5 Z" id="Path" fill="rgb(0, 45, 52)" fill-rule="nonzero" transform="translate(5.000000, 3.500000) scale(1, -1) translate(-5.000000, -3.500000) "></path><path d="M0,3.5 C2.66666667,0.833333333 5.33333333,0.833333333 8,3.5 C5.33333333,6.16666667 2.66666667,6.16666667 0,3.5 Z" id="Path" fill="rgb(40, 95, 62)" fill-rule="nonzero" transform="translate(4.000000, 3.500000) scale(1, -1) translate(-4.000000, -3.500000) "></path><path d="M8.82226562,3.5 L0.223510742,3.5" id="Line" stroke="#A5BA80" stroke-width="0.5" stroke-linecap="round" stroke-linejoin="round"></path><path d="M7.80076271,2.76219576 C7.11734736,3.15706509 6.13394225,3.10864081 4.85054738,2.61692291" id="Line" stroke="rgb(90, 145, 112)" stroke-width="0.25" stroke-linecap="round" stroke-linejoin="round" transform="translate(6.325655, 2.821460) rotate(-35.000000) translate(-6.325655, -2.821460) "></path><path d="M6.65094311,4.65649209 C5.99478483,3.88732689 4.87167906,3.80300232 3.28162582,4.4035184" id="Line" stroke="rgb(90, 145, 112)" stroke-width="0.25" stroke-linecap="round" stroke-linejoin="round" transform="translate(4.966284, 4.332540) rotate(32.000000) translate(-4.966284, -4.332540) "></path><path d="M5.04428849,1.4829866 C4.22252558,2.1283566 2.98670756,2.42182405 1.33683443,2.36338894" id="Line" stroke="rgb(90, 145, 112)" stroke-width="0.25" stroke-linecap="round" stroke-linejoin="round" transform="translate(3.190561, 1.926827) rotate(-35.000000) translate(-3.190561, -1.926827) "></path></g></g><g id="grow192" class="ungrown" data-svg-origin="0 0" style="opacity: 0; fill: rgb(0, 137, 0);" transform="matrix(0,0,0,0,56.31399999999999,60)"><g><path d="M0,3.5 C2,-6.64884814e-14 6,-2 10,3.5 C6,9 2,7 0,3.5 Z" id="Path" fill="rgb(0, 45, 52)" fill-rule="nonzero" transform="translate(5.000000, 3.500000) scale(1, -1) translate(-5.000000, -3.500000) "></path><path d="M0,3.5 C2.66666667,0.833333333 5.33333333,0.833333333 8,3.5 C5.33333333,6.16666667 2.66666667,6.16666667 0,3.5 Z" id="Path" fill="rgb(40, 95, 62)" fill-rule="nonzero" transform="translate(4.000000, 3.500000) scale(1, -1) translate(-4.000000, -3.500000) "></path><path d="M8.82226562,3.5 L0.223510742,3.5" id="Line" stroke="#A5BA80" stroke-width="0.5" stroke-linecap="round" stroke-linejoin="round"></path><path d="M7.80076271,2.76219576 C7.11734736,3.15706509 6.13394225,3.10864081 4.85054738,2.61692291" id="Line" stroke="rgb(90, 145, 112)" stroke-width="0.25" stroke-linecap="round" stroke-linejoin="round" transform="translate(6.325655, 2.821460) rotate(-35.000000) translate(-6.325655, -2.821460) "></path><path d="M6.65094311,4.65649209 C5.99478483,3.88732689 4.87167906,3.80300232 3.28162582,4.4035184" id="Line" stroke="rgb(90, 145, 112)" stroke-width="0.25" stroke-linecap="round" stroke-linejoin="round" transform="translate(4.966284, 4.332540) rotate(32.000000) translate(-4.966284, -4.332540) "></path><path d="M5.04428849,1.4829866 C4.22252558,2.1283566 2.98670756,2.42182405 1.33683443,2.36338894" id="Line" stroke="rgb(90, 145, 112)" stroke-width="0.25" stroke-linecap="round" stroke-linejoin="round" transform="translate(3.190561, 1.926827) rotate(-35.000000) translate(-3.190561, -1.926827) "></path></g></g><g id="grow193" class="ungrown" data-svg-origin="0 0" style="opacity: 0; fill: rgb(0, 157, 0);" transform="matrix(0,0,0,0,56.31399999999999,65)"><g><path d="M0,3.5 C2,-6.64884814e-14 6,-2 10,3.5 C6,9 2,7 0,3.5 Z" id="Path" fill="rgb(0, 45, 52)" fill-rule="nonzero" transform="translate(5.000000, 3.500000) scale(1, -1) translate(-5.000000, -3.500000) "></path><path d="M0,3.5 C2.66666667,0.833333333 5.33333333,0.833333333 8,3.5 C5.33333333,6.16666667 2.66666667,6.16666667 0,3.5 Z" id="Path" fill="rgb(40, 95, 62)" fill-rule="nonzero" transform="translate(4.000000, 3.500000) scale(1, -1) translate(-4.000000, -3.500000) "></path><path d="M8.82226562,3.5 L0.223510742,3.5" id="Line" stroke="#A5BA80" stroke-width="0.5" stroke-linecap="round" stroke-linejoin="round"></path><path d="M7.80076271,2.76219576 C7.11734736,3.15706509 6.13394225,3.10864081 4.85054738,2.61692291" id="Line" stroke="rgb(90, 145, 112)" stroke-width="0.25" stroke-linecap="round" stroke-linejoin="round" transform="translate(6.325655, 2.821460) rotate(-35.000000) translate(-6.325655, -2.821460) "></path><path d="M6.65094311,4.65649209 C5.99478483,3.88732689 4.87167906,3.80300232 3.28162582,4.4035184" id="Line" stroke="rgb(90, 145, 112)" stroke-width="0.25" stroke-linecap="round" stroke-linejoin="round" transform="translate(4.966284, 4.332540) rotate(32.000000) translate(-4.966284, -4.332540) "></path><path d="M5.04428849,1.4829866 C4.22252558,2.1283566 2.98670756,2.42182405 1.33683443,2.36338894" id="Line" stroke="rgb(90, 145, 112)" stroke-width="0.25" stroke-linecap="round" stroke-linejoin="round" transform="translate(3.190561, 1.926827) rotate(-35.000000) translate(-3.190561, -1.926827) "></path></g></g><g id="grow194" class="ungrown" data-svg-origin="0 0" style="opacity: 0; fill: rgb(0, 120, 0);" transform="matrix(0,0,0,0,57.465999999999994,70)"><g><path d="M0,3.5 C2,-6.64884814e-14 6,-2 10,3.5 C6,9 2,7 0,3.5 Z" id="Path" fill="rgb(0, 45, 52)" fill-rule="nonzero" transform="translate(5.000000, 3.500000) scale(1, -1) translate(-5.000000, -3.500000) "></path><path d="M0,3.5 C2.66666667,0.833333333 5.33333333,0.833333333 8,3.5 C5.33333333,6.16666667 2.66666667,6.16666667 0,3.5 Z" id="Path" fill="rgb(40, 95, 62)" fill-rule="nonzero" transform="translate(4.000000, 3.500000) scale(1, -1) translate(-4.000000, -3.500000) "></path><path d="M8.82226562,3.5 L0.223510742,3.5" id="Line" stroke="#A5BA80" stroke-width="0.5" stroke-linecap="round" stroke-linejoin="round"></path><path d="M7.80076271,2.76219576 C7.11734736,3.15706509 6.13394225,3.10864081 4.85054738,2.61692291" id="Line" stroke="rgb(90, 145, 112)" stroke-width="0.25" stroke-linecap="round" stroke-linejoin="round" transform="translate(6.325655, 2.821460) rotate(-35.000000) translate(-6.325655, -2.821460) "></path><path d="M6.65094311,4.65649209 C5.99478483,3.88732689 4.87167906,3.80300232 3.28162582,4.4035184" id="Line" stroke="rgb(90, 145, 112)" stroke-width="0.25" stroke-linecap="round" stroke-linejoin="round" transform="translate(4.966284, 4.332540) rotate(32.000000) translate(-4.966284, -4.332540) "></path><path d="M5.04428849,1.4829866 C4.22252558,2.1283566 2.98670756,2.42182405 1.33683443,2.36338894" id="Line" stroke="rgb(90, 145, 112)" stroke-width="0.25" stroke-linecap="round" stroke-linejoin="round" transform="translate(3.190561, 1.926827) rotate(-35.000000) translate(-3.190561, -1.926827) "></path></g></g><g id="grow195" class="ungrown" data-svg-origin="0 0" style="opacity: 0; fill: rgb(0, 136, 0);" transform="matrix(0,0,0,0,59.13999999999999,75)"><g><path d="M0,3.5 C2,-6.64884814e-14 6,-2 10,3.5 C6,9 2,7 0,3.5 Z" id="Path" fill="rgb(0, 45, 52)" fill-rule="nonzero" transform="translate(5.000000, 3.500000) scale(1, -1) translate(-5.000000, -3.500000) "></path><path d="M0,3.5 C2.66666667,0.833333333 5.33333333,0.833333333 8,3.5 C5.33333333,6.16666667 2.66666667,6.16666667 0,3.5 Z" id="Path" fill="rgb(40, 95, 62)" fill-rule="nonzero" transform="translate(4.000000, 3.500000) scale(1, -1) translate(-4.000000, -3.500000) "></path><path d="M8.82226562,3.5 L0.223510742,3.5" id="Line" stroke="#A5BA80" stroke-width="0.5" stroke-linecap="round" stroke-linejoin="round"></path><path d="M7.80076271,2.76219576 C7.11734736,3.15706509 6.13394225,3.10864081 4.85054738,2.61692291" id="Line" stroke="rgb(90, 145, 112)" stroke-width="0.25" stroke-linecap="round" stroke-linejoin="round" transform="translate(6.325655, 2.821460) rotate(-35.000000) translate(-6.325655, -2.821460) "></path><path d="M6.65094311,4.65649209 C5.99478483,3.88732689 4.87167906,3.80300232 3.28162582,4.4035184" id="Line" stroke="rgb(90, 145, 112)" stroke-width="0.25" stroke-linecap="round" stroke-linejoin="round" transform="translate(4.966284, 4.332540) rotate(32.000000) translate(-4.966284, -4.332540) "></path><path d="M5.04428849,1.4829866 C4.22252558,2.1283566 2.98670756,2.42182405 1.33683443,2.36338894" id="Line" stroke="rgb(90, 145, 112)" stroke-width="0.25" stroke-linecap="round" stroke-linejoin="round" transform="translate(3.190561, 1.926827) rotate(-35.000000) translate(-3.190561, -1.926827) "></path></g></g><g id="grow196" class="ungrown" data-svg-origin="0 0" style="opacity: 0; fill: rgb(0, 128, 0);" transform="matrix(0,0,0,0,59.49999999999999,80)"><g><path d="M0,3.5 C2,-6.64884814e-14 6,-2 10,3.5 C6,9 2,7 0,3.5 Z" id="Path" fill="rgb(0, 45, 52)" fill-rule="nonzero" transform="translate(5.000000, 3.500000) scale(1, -1) translate(-5.000000, -3.500000) "></path><path d="M0,3.5 C2.66666667,0.833333333 5.33333333,0.833333333 8,3.5 C5.33333333,6.16666667 2.66666667,6.16666667 0,3.5 Z" id="Path" fill="rgb(40, 95, 62)" fill-rule="nonzero" transform="translate(4.000000, 3.500000) scale(1, -1) translate(-4.000000, -3.500000) "></path><path d="M8.82226562,3.5 L0.223510742,3.5" id="Line" stroke="#A5BA80" stroke-width="0.5" stroke-linecap="round" stroke-linejoin="round"></path><path d="M7.80076271,2.76219576 C7.11734736,3.15706509 6.13394225,3.10864081 4.85054738,2.61692291" id="Line" stroke="rgb(90, 145, 112)" stroke-width="0.25" stroke-linecap="round" stroke-linejoin="round" transform="translate(6.325655, 2.821460) rotate(-35.000000) translate(-6.325655, -2.821460) "></path><path d="M6.65094311,4.65649209 C5.99478483,3.88732689 4.87167906,3.80300232 3.28162582,4.4035184" id="Line" stroke="rgb(90, 145, 112)" stroke-width="0.25" stroke-linecap="round" stroke-linejoin="round" transform="translate(4.966284, 4.332540) rotate(32.000000) translate(-4.966284, -4.332540) "></path><path d="M5.04428849,1.4829866 C4.22252558,2.1283566 2.98670756,2.42182405 1.33683443,2.36338894" id="Line" stroke="rgb(90, 145, 112)" stroke-width="0.25" stroke-linecap="round" stroke-linejoin="round" transform="translate(3.190561, 1.926827) rotate(-35.000000) translate(-3.190561, -1.926827) "></path></g></g><g id="grow197" class="ungrown" data-svg-origin="0 0" style="opacity: 0; fill: rgb(0, 145, 0);" transform="matrix(0,0,0,0,58.629999999999995,85)"><g><path d="M0,3.5 C2,-6.64884814e-14 6,-2 10,3.5 C6,9 2,7 0,3.5 Z" id="Path" fill="rgb(0, 45, 52)" fill-rule="nonzero" transform="translate(5.000000, 3.500000) scale(1, -1) translate(-5.000000, -3.500000) "></path><path d="M0,3.5 C2.66666667,0.833333333 5.33333333,0.833333333 8,3.5 C5.33333333,6.16666667 2.66666667,6.16666667 0,3.5 Z" id="Path" fill="rgb(40, 95, 62)" fill-rule="nonzero" transform="translate(4.000000, 3.500000) scale(1, -1) translate(-4.000000, -3.500000) "></path><path d="M8.82226562,3.5 L0.223510742,3.5" id="Line" stroke="#A5BA80" stroke-width="0.5" stroke-linecap="round" stroke-linejoin="round"></path><path d="M7.80076271,2.76219576 C7.11734736,3.15706509 6.13394225,3.10864081 4.85054738,2.61692291" id="Line" stroke="rgb(90, 145, 112)" stroke-width="0.25" stroke-linecap="round" stroke-linejoin="round" transform="translate(6.325655, 2.821460) rotate(-35.000000) translate(-6.325655, -2.821460) "></path><path d="M6.65094311,4.65649209 C5.99478483,3.88732689 4.87167906,3.80300232 3.28162582,4.4035184" id="Line" stroke="rgb(90, 145, 112)" stroke-width="0.25" stroke-linecap="round" stroke-linejoin="round" transform="translate(4.966284, 4.332540) rotate(32.000000) translate(-4.966284, -4.332540) "></path><path d="M5.04428849,1.4829866 C4.22252558,2.1283566 2.98670756,2.42182405 1.33683443,2.36338894" id="Line" stroke="rgb(90, 145, 112)" stroke-width="0.25" stroke-linecap="round" stroke-linejoin="round" transform="translate(3.190561, 1.926827) rotate(-35.000000) translate(-3.190561, -1.926827) "></path></g></g><g id="grow198" class="ungrown" data-svg-origin="0 0" style="opacity: 0; fill: rgb(0, 126, 0);" transform="matrix(0,0,0,0,59.13399999999999,90)"><g><path d="M0,3.5 C2,-6.64884814e-14 6,-2 10,3.5 C6,9 2,7 0,3.5 Z" id="Path" fill="rgb(0, 45, 52)" fill-rule="nonzero" transform="translate(5.000000, 3.500000) scale(1, -1) translate(-5.000000, -3.500000) "></path><path d="M0,3.5 C2.66666667,0.833333333 5.33333333,0.833333333 8,3.5 C5.33333333,6.16666667 2.66666667,6.16666667 0,3.5 Z" id="Path" fill="rgb(40, 95, 62)" fill-rule="nonzero" transform="translate(4.000000, 3.500000) scale(1, -1) translate(-4.000000, -3.500000) "></path><path d="M8.82226562,3.5 L0.223510742,3.5" id="Line" stroke="#A5BA80" stroke-width="0.5" stroke-linecap="round" stroke-linejoin="round"></path><path d="M7.80076271,2.76219576 C7.11734736,3.15706509 6.13394225,3.10864081 4.85054738,2.61692291" id="Line" stroke="rgb(90, 145, 112)" stroke-width="0.25" stroke-linecap="round" stroke-linejoin="round" transform="translate(6.325655, 2.821460) rotate(-35.000000) translate(-6.325655, -2.821460) "></path><path d="M6.65094311,4.65649209 C5.99478483,3.88732689 4.87167906,3.80300232 3.28162582,4.4035184" id="Line" stroke="rgb(90, 145, 112)" stroke-width="0.25" stroke-linecap="round" stroke-linejoin="round" transform="translate(4.966284, 4.332540) rotate(32.000000) translate(-4.966284, -4.332540) "></path><path d="M5.04428849,1.4829866 C4.22252558,2.1283566 2.98670756,2.42182405 1.33683443,2.36338894" id="Line" stroke="rgb(90, 145, 112)" stroke-width="0.25" stroke-linecap="round" stroke-linejoin="round" transform="translate(3.190561, 1.926827) rotate(-35.000000) translate(-3.190561, -1.926827) "></path></g></g><g id="grow199" class="ungrown" data-svg-origin="0 0" style="opacity: 0; fill: rgb(0, 148, 0);" transform="matrix(0,0,0,0,60.267999999999994,95)"><g><path d="M0,3.5 C2,-6.64884814e-14 6,-2 10,3.5 C6,9 2,7 0,3.5 Z" id="Path" fill="rgb(0, 45, 52)" fill-rule="nonzero" transform="translate(5.000000, 3.500000) scale(1, -1) translate(-5.000000, -3.500000) "></path><path d="M0,3.5 C2.66666667,0.833333333 5.33333333,0.833333333 8,3.5 C5.33333333,6.16666667 2.66666667,6.16666667 0,3.5 Z" id="Path" fill="rgb(40, 95, 62)" fill-rule="nonzero" transform="translate(4.000000, 3.500000) scale(1, -1) translate(-4.000000, -3.500000) "></path><path d="M8.82226562,3.5 L0.223510742,3.5" id="Line" stroke="#A5BA80" stroke-width="0.5" stroke-linecap="round" stroke-linejoin="round"></path><path d="M7.80076271,2.76219576 C7.11734736,3.15706509 6.13394225,3.10864081 4.85054738,2.61692291" id="Line" stroke="rgb(90, 145, 112)" stroke-width="0.25" stroke-linecap="round" stroke-linejoin="round" transform="translate(6.325655, 2.821460) rotate(-35.000000) translate(-6.325655, -2.821460) "></path><path d="M6.65094311,4.65649209 C5.99478483,3.88732689 4.87167906,3.80300232 3.28162582,4.4035184" id="Line" stroke="rgb(90, 145, 112)" stroke-width="0.25" stroke-linecap="round" stroke-linejoin="round" transform="translate(4.966284, 4.332540) rotate(32.000000) translate(-4.966284, -4.332540) "></path><path d="M5.04428849,1.4829866 C4.22252558,2.1283566 2.98670756,2.42182405 1.33683443,2.36338894" id="Line" stroke="rgb(90, 145, 112)" stroke-width="0.25" stroke-linecap="round" stroke-linejoin="round" transform="translate(3.190561, 1.926827) rotate(-35.000000) translate(-3.190561, -1.926827) "></path></g></g><g id="grow200" class="ungrown" data-svg-origin="0 0" style="opacity: 0; fill: rgb(0, 134, 0);" transform="matrix(0,0,0,0,59.64399999999999,100)"><g><path d="M0,3.5 C2,-6.64884814e-14 6,-2 10,3.5 C6,9 2,7 0,3.5 Z" id="Path" fill="rgb(0, 45, 52)" fill-rule="nonzero" transform="translate(5.000000, 3.500000) scale(1, -1) translate(-5.000000, -3.500000) "></path><path d="M0,3.5 C2.66666667,0.833333333 5.33333333,0.833333333 8,3.5 C5.33333333,6.16666667 2.66666667,6.16666667 0,3.5 Z" id="Path" fill="rgb(40, 95, 62)" fill-rule="nonzero" transform="translate(4.000000, 3.500000) scale(1, -1) translate(-4.000000, -3.500000) "></path><path d="M8.82226562,3.5 L0.223510742,3.5" id="Line" stroke="#A5BA80" stroke-width="0.5" stroke-linecap="round" stroke-linejoin="round"></path><path d="M7.80076271,2.76219576 C7.11734736,3.15706509 6.13394225,3.10864081 4.85054738,2.61692291" id="Line" stroke="rgb(90, 145, 112)" stroke-width="0.25" stroke-linecap="round" stroke-linejoin="round" transform="translate(6.325655, 2.821460) rotate(-35.000000) translate(-6.325655, -2.821460) "></path><path d="M6.65094311,4.65649209 C5.99478483,3.88732689 4.87167906,3.80300232 3.28162582,4.4035184" id="Line" stroke="rgb(90, 145, 112)" stroke-width="0.25" stroke-linecap="round" stroke-linejoin="round" transform="translate(4.966284, 4.332540) rotate(32.000000) translate(-4.966284, -4.332540) "></path><path d="M5.04428849,1.4829866 C4.22252558,2.1283566 2.98670756,2.42182405 1.33683443,2.36338894" id="Line" stroke="rgb(90, 145, 112)" stroke-width="0.25" stroke-linecap="round" stroke-linejoin="round" transform="translate(3.190561, 1.926827) rotate(-35.000000) translate(-3.190561, -1.926827) "></path></g></g><g id="grow201" class="ungrown" data-svg-origin="0 0" style="opacity: 0; fill: rgb(0, 148, 0);" transform="matrix(0,0,0,0,59.64399999999999,105)"><g><path d="M0,3.5 C2,-6.64884814e-14 6,-2 10,3.5 C6,9 2,7 0,3.5 Z" id="Path" fill="rgb(0, 45, 52)" fill-rule="nonzero" transform="translate(5.000000, 3.500000) scale(1, -1) translate(-5.000000, -3.500000) "></path><path d="M0,3.5 C2.66666667,0.833333333 5.33333333,0.833333333 8,3.5 C5.33333333,6.16666667 2.66666667,6.16666667 0,3.5 Z" id="Path" fill="rgb(40, 95, 62)" fill-rule="nonzero" transform="translate(4.000000, 3.500000) scale(1, -1) translate(-4.000000, -3.500000) "></path><path d="M8.82226562,3.5 L0.223510742,3.5" id="Line" stroke="#A5BA80" stroke-width="0.5" stroke-linecap="round" stroke-linejoin="round"></path><path d="M7.80076271,2.76219576 C7.11734736,3.15706509 6.13394225,3.10864081 4.85054738,2.61692291" id="Line" stroke="rgb(90, 145, 112)" stroke-width="0.25" stroke-linecap="round" stroke-linejoin="round" transform="translate(6.325655, 2.821460) rotate(-35.000000) translate(-6.325655, -2.821460) "></path><path d="M6.65094311,4.65649209 C5.99478483,3.88732689 4.87167906,3.80300232 3.28162582,4.4035184" id="Line" stroke="rgb(90, 145, 112)" stroke-width="0.25" stroke-linecap="round" stroke-linejoin="round" transform="translate(4.966284, 4.332540) rotate(32.000000) translate(-4.966284, -4.332540) "></path><path d="M5.04428849,1.4829866 C4.22252558,2.1283566 2.98670756,2.42182405 1.33683443,2.36338894" id="Line" stroke="rgb(90, 145, 112)" stroke-width="0.25" stroke-linecap="round" stroke-linejoin="round" transform="translate(3.190561, 1.926827) rotate(-35.000000) translate(-3.190561, -1.926827) "></path></g></g><g id="grow202" class="ungrown" data-svg-origin="0 0" style="opacity: 0; fill: rgb(0, 133, 0);" transform="matrix(0,0,0,0,60.07599999999999,110)"><g><path d="M0,3.5 C2,-6.64884814e-14 6,-2 10,3.5 C6,9 2,7 0,3.5 Z" id="Path" fill="rgb(0, 45, 52)" fill-rule="nonzero" transform="translate(5.000000, 3.500000) scale(1, -1) translate(-5.000000, -3.500000) "></path><path d="M0,3.5 C2.66666667,0.833333333 5.33333333,0.833333333 8,3.5 C5.33333333,6.16666667 2.66666667,6.16666667 0,3.5 Z" id="Path" fill="rgb(40, 95, 62)" fill-rule="nonzero" transform="translate(4.000000, 3.500000) scale(1, -1) translate(-4.000000, -3.500000) "></path><path d="M8.82226562,3.5 L0.223510742,3.5" id="Line" stroke="#A5BA80" stroke-width="0.5" stroke-linecap="round" stroke-linejoin="round"></path><path d="M7.80076271,2.76219576 C7.11734736,3.15706509 6.13394225,3.10864081 4.85054738,2.61692291" id="Line" stroke="rgb(90, 145, 112)" stroke-width="0.25" stroke-linecap="round" stroke-linejoin="round" transform="translate(6.325655, 2.821460) rotate(-35.000000) translate(-6.325655, -2.821460) "></path><path d="M6.65094311,4.65649209 C5.99478483,3.88732689 4.87167906,3.80300232 3.28162582,4.4035184" id="Line" stroke="rgb(90, 145, 112)" stroke-width="0.25" stroke-linecap="round" stroke-linejoin="round" transform="translate(4.966284, 4.332540) rotate(32.000000) translate(-4.966284, -4.332540) "></path><path d="M5.04428849,1.4829866 C4.22252558,2.1283566 2.98670756,2.42182405 1.33683443,2.36338894" id="Line" stroke="rgb(90, 145, 112)" stroke-width="0.25" stroke-linecap="round" stroke-linejoin="round" transform="translate(3.190561, 1.926827) rotate(-35.000000) translate(-3.190561, -1.926827) "></path></g></g><g id="grow203" class="ungrown" data-svg-origin="0 0" style="opacity: 0; fill: rgb(0, 137, 0);" transform="matrix(0,0,0,0,58.55799999999999,115)"><g><path d="M0,3.5 C2,-6.64884814e-14 6,-2 10,3.5 C6,9 2,7 0,3.5 Z" id="Path" fill="rgb(0, 45, 52)" fill-rule="nonzero" transform="translate(5.000000, 3.500000) scale(1, -1) translate(-5.000000, -3.500000) "></path><path d="M0,3.5 C2.66666667,0.833333333 5.33333333,0.833333333 8,3.5 C5.33333333,6.16666667 2.66666667,6.16666667 0,3.5 Z" id="Path" fill="rgb(40, 95, 62)" fill-rule="nonzero" transform="translate(4.000000, 3.500000) scale(1, -1) translate(-4.000000, -3.500000) "></path><path d="M8.82226562,3.5 L0.223510742,3.5" id="Line" stroke="#A5BA80" stroke-width="0.5" stroke-linecap="round" stroke-linejoin="round"></path><path d="M7.80076271,2.76219576 C7.11734736,3.15706509 6.13394225,3.10864081 4.85054738,2.61692291" id="Line" stroke="rgb(90, 145, 112)" stroke-width="0.25" stroke-linecap="round" stroke-linejoin="round" transform="translate(6.325655, 2.821460) rotate(-35.000000) translate(-6.325655, -2.821460) "></path><path d="M6.65094311,4.65649209 C5.99478483,3.88732689 4.87167906,3.80300232 3.28162582,4.4035184" id="Line" stroke="rgb(90, 145, 112)" stroke-width="0.25" stroke-linecap="round" stroke-linejoin="round" transform="translate(4.966284, 4.332540) rotate(32.000000) translate(-4.966284, -4.332540) "></path><path d="M5.04428849,1.4829866 C4.22252558,2.1283566 2.98670756,2.42182405 1.33683443,2.36338894" id="Line" stroke="rgb(90, 145, 112)" stroke-width="0.25" stroke-linecap="round" stroke-linejoin="round" transform="translate(3.190561, 1.926827) rotate(-35.000000) translate(-3.190561, -1.926827) "></path></g></g><g id="grow204" class="ungrown" data-svg-origin="0 0" style="opacity: 0; fill: rgb(0, 128, 0);" transform="matrix(0,0,0,0,59.87799999999999,120)"><g><path d="M0,3.5 C2,-6.64884814e-14 6,-2 10,3.5 C6,9 2,7 0,3.5 Z" id="Path" fill="rgb(0, 45, 52)" fill-rule="nonzero" transform="translate(5.000000, 3.500000) scale(1, -1) translate(-5.000000, -3.500000) "></path><path d="M0,3.5 C2.66666667,0.833333333 5.33333333,0.833333333 8,3.5 C5.33333333,6.16666667 2.66666667,6.16666667 0,3.5 Z" id="Path" fill="rgb(40, 95, 62)" fill-rule="nonzero" transform="translate(4.000000, 3.500000) scale(1, -1) translate(-4.000000, -3.500000) "></path><path d="M8.82226562,3.5 L0.223510742,3.5" id="Line" stroke="#A5BA80" stroke-width="0.5" stroke-linecap="round" stroke-linejoin="round"></path><path d="M7.80076271,2.76219576 C7.11734736,3.15706509 6.13394225,3.10864081 4.85054738,2.61692291" id="Line" stroke="rgb(90, 145, 112)" stroke-width="0.25" stroke-linecap="round" stroke-linejoin="round" transform="translate(6.325655, 2.821460) rotate(-35.000000) translate(-6.325655, -2.821460) "></path><path d="M6.65094311,4.65649209 C5.99478483,3.88732689 4.87167906,3.80300232 3.28162582,4.4035184" id="Line" stroke="rgb(90, 145, 112)" stroke-width="0.25" stroke-linecap="round" stroke-linejoin="round" transform="translate(4.966284, 4.332540) rotate(32.000000) translate(-4.966284, -4.332540) "></path><path d="M5.04428849,1.4829866 C4.22252558,2.1283566 2.98670756,2.42182405 1.33683443,2.36338894" id="Line" stroke="rgb(90, 145, 112)" stroke-width="0.25" stroke-linecap="round" stroke-linejoin="round" transform="translate(3.190561, 1.926827) rotate(-35.000000) translate(-3.190561, -1.926827) "></path></g></g><g id="grow205" class="ungrown" data-svg-origin="0 0" style="opacity: 0; fill: rgb(0, 158, 0);" transform="matrix(0,0,0,0,59.373999999999995,125)"><g><path d="M0,3.5 C2,-6.64884814e-14 6,-2 10,3.5 C6,9 2,7 0,3.5 Z" id="Path" fill="rgb(0, 45, 52)" fill-rule="nonzero" transform="translate(5.000000, 3.500000) scale(1, -1) translate(-5.000000, -3.500000) "></path><path d="M0,3.5 C2.66666667,0.833333333 5.33333333,0.833333333 8,3.5 C5.33333333,6.16666667 2.66666667,6.16666667 0,3.5 Z" id="Path" fill="rgb(40, 95, 62)" fill-rule="nonzero" transform="translate(4.000000, 3.500000) scale(1, -1) translate(-4.000000, -3.500000) "></path><path d="M8.82226562,3.5 L0.223510742,3.5" id="Line" stroke="#A5BA80" stroke-width="0.5" stroke-linecap="round" stroke-linejoin="round"></path><path d="M7.80076271,2.76219576 C7.11734736,3.15706509 6.13394225,3.10864081 4.85054738,2.61692291" id="Line" stroke="rgb(90, 145, 112)" stroke-width="0.25" stroke-linecap="round" stroke-linejoin="round" transform="translate(6.325655, 2.821460) rotate(-35.000000) translate(-6.325655, -2.821460) "></path><path d="M6.65094311,4.65649209 C5.99478483,3.88732689 4.87167906,3.80300232 3.28162582,4.4035184" id="Line" stroke="rgb(90, 145, 112)" stroke-width="0.25" stroke-linecap="round" stroke-linejoin="round" transform="translate(4.966284, 4.332540) rotate(32.000000) translate(-4.966284, -4.332540) "></path><path d="M5.04428849,1.4829866 C4.22252558,2.1283566 2.98670756,2.42182405 1.33683443,2.36338894" id="Line" stroke="rgb(90, 145, 112)" stroke-width="0.25" stroke-linecap="round" stroke-linejoin="round" transform="translate(3.190561, 1.926827) rotate(-35.000000) translate(-3.190561, -1.926827) "></path></g></g><g id="grow206" class="ungrown" data-svg-origin="0 0" style="opacity: 0; fill: rgb(0, 120, 0);" transform="matrix(0,0,0,0,58.894,130)"><g><path d="M0,3.5 C2,-6.64884814e-14 6,-2 10,3.5 C6,9 2,7 0,3.5 Z" id="Path" fill="rgb(0, 45, 52)" fill-rule="nonzero" transform="translate(5.000000, 3.500000) scale(1, -1) translate(-5.000000, -3.500000) "></path><path d="M0,3.5 C2.66666667,0.833333333 5.33333333,0.833333333 8,3.5 C5.33333333,6.16666667 2.66666667,6.16666667 0,3.5 Z" id="Path" fill="rgb(40, 95, 62)" fill-rule="nonzero" transform="translate(4.000000, 3.500000) scale(1, -1) translate(-4.000000, -3.500000) "></path><path d="M8.82226562,3.5 L0.223510742,3.5" id="Line" stroke="#A5BA80" stroke-width="0.5" stroke-linecap="round" stroke-linejoin="round"></path><path d="M7.80076271,2.76219576 C7.11734736,3.15706509 6.13394225,3.10864081 4.85054738,2.61692291" id="Line" stroke="rgb(90, 145, 112)" stroke-width="0.25" stroke-linecap="round" stroke-linejoin="round" transform="translate(6.325655, 2.821460) rotate(-35.000000) translate(-6.325655, -2.821460) "></path><path d="M6.65094311,4.65649209 C5.99478483,3.88732689 4.87167906,3.80300232 3.28162582,4.4035184" id="Line" stroke="rgb(90, 145, 112)" stroke-width="0.25" stroke-linecap="round" stroke-linejoin="round" transform="translate(4.966284, 4.332540) rotate(32.000000) translate(-4.966284, -4.332540) "></path><path d="M5.04428849,1.4829866 C4.22252558,2.1283566 2.98670756,2.42182405 1.33683443,2.36338894" id="Line" stroke="rgb(90, 145, 112)" stroke-width="0.25" stroke-linecap="round" stroke-linejoin="round" transform="translate(3.190561, 1.926827) rotate(-35.000000) translate(-3.190561, -1.926827) "></path></g></g><g id="grow207" class="ungrown" data-svg-origin="0 0" style="opacity: 0; fill: rgb(0, 152, 0);" transform="matrix(0,0,0,0,59.122,135)"><g><path d="M0,3.5 C2,-6.64884814e-14 6,-2 10,3.5 C6,9 2,7 0,3.5 Z" id="Path" fill="rgb(0, 45, 52)" fill-rule="nonzero" transform="translate(5.000000, 3.500000) scale(1, -1) translate(-5.000000, -3.500000) "></path><path d="M0,3.5 C2.66666667,0.833333333 5.33333333,0.833333333 8,3.5 C5.33333333,6.16666667 2.66666667,6.16666667 0,3.5 Z" id="Path" fill="rgb(40, 95, 62)" fill-rule="nonzero" transform="translate(4.000000, 3.500000) scale(1, -1) translate(-4.000000, -3.500000) "></path><path d="M8.82226562,3.5 L0.223510742,3.5" id="Line" stroke="#A5BA80" stroke-width="0.5" stroke-linecap="round" stroke-linejoin="round"></path><path d="M7.80076271,2.76219576 C7.11734736,3.15706509 6.13394225,3.10864081 4.85054738,2.61692291" id="Line" stroke="rgb(90, 145, 112)" stroke-width="0.25" stroke-linecap="round" stroke-linejoin="round" transform="translate(6.325655, 2.821460) rotate(-35.000000) translate(-6.325655, -2.821460) "></path><path d="M6.65094311,4.65649209 C5.99478483,3.88732689 4.87167906,3.80300232 3.28162582,4.4035184" id="Line" stroke="rgb(90, 145, 112)" stroke-width="0.25" stroke-linecap="round" stroke-linejoin="round" transform="translate(4.966284, 4.332540) rotate(32.000000) translate(-4.966284, -4.332540) "></path><path d="M5.04428849,1.4829866 C4.22252558,2.1283566 2.98670756,2.42182405 1.33683443,2.36338894" id="Line" stroke="rgb(90, 145, 112)" stroke-width="0.25" stroke-linecap="round" stroke-linejoin="round" transform="translate(3.190561, 1.926827) rotate(-35.000000) translate(-3.190561, -1.926827) "></path></g></g><g id="grow208" class="ungrown" data-svg-origin="0 0" style="opacity: 0; fill: rgb(0, 141, 0);" transform="matrix(0,0,0,0,58.474,140)"><g><path d="M0,3.5 C2,-6.64884814e-14 6,-2 10,3.5 C6,9 2,7 0,3.5 Z" id="Path" fill="rgb(0, 45, 52)" fill-rule="nonzero" transform="translate(5.000000, 3.500000) scale(1, -1) translate(-5.000000, -3.500000) "></path><path d="M0,3.5 C2.66666667,0.833333333 5.33333333,0.833333333 8,3.5 C5.33333333,6.16666667 2.66666667,6.16666667 0,3.5 Z" id="Path" fill="rgb(40, 95, 62)" fill-rule="nonzero" transform="translate(4.000000, 3.500000) scale(1, -1) translate(-4.000000, -3.500000) "></path><path d="M8.82226562,3.5 L0.223510742,3.5" id="Line" stroke="#A5BA80" stroke-width="0.5" stroke-linecap="round" stroke-linejoin="round"></path><path d="M7.80076271,2.76219576 C7.11734736,3.15706509 6.13394225,3.10864081 4.85054738,2.61692291" id="Line" stroke="rgb(90, 145, 112)" stroke-width="0.25" stroke-linecap="round" stroke-linejoin="round" transform="translate(6.325655, 2.821460) rotate(-35.000000) translate(-6.325655, -2.821460) "></path><path d="M6.65094311,4.65649209 C5.99478483,3.88732689 4.87167906,3.80300232 3.28162582,4.4035184" id="Line" stroke="rgb(90, 145, 112)" stroke-width="0.25" stroke-linecap="round" stroke-linejoin="round" transform="translate(4.966284, 4.332540) rotate(32.000000) translate(-4.966284, -4.332540) "></path><path d="M5.04428849,1.4829866 C4.22252558,2.1283566 2.98670756,2.42182405 1.33683443,2.36338894" id="Line" stroke="rgb(90, 145, 112)" stroke-width="0.25" stroke-linecap="round" stroke-linejoin="round" transform="translate(3.190561, 1.926827) rotate(-35.000000) translate(-3.190561, -1.926827) "></path></g></g><g id="grow209" class="ungrown" data-svg-origin="0 0" style="opacity: 0; fill: rgb(0, 138, 0);" transform="matrix(0,0,0,0,57.964,145)"><g><path d="M0,3.5 C2,-6.64884814e-14 6,-2 10,3.5 C6,9 2,7 0,3.5 Z" id="Path" fill="rgb(0, 45, 52)" fill-rule="nonzero" transform="translate(5.000000, 3.500000) scale(1, -1) translate(-5.000000, -3.500000) "></path><path d="M0,3.5 C2.66666667,0.833333333 5.33333333,0.833333333 8,3.5 C5.33333333,6.16666667 2.66666667,6.16666667 0,3.5 Z" id="Path" fill="rgb(40, 95, 62)" fill-rule="nonzero" transform="translate(4.000000, 3.500000) scale(1, -1) translate(-4.000000, -3.500000) "></path><path d="M8.82226562,3.5 L0.223510742,3.5" id="Line" stroke="#A5BA80" stroke-width="0.5" stroke-linecap="round" stroke-linejoin="round"></path><path d="M7.80076271,2.76219576 C7.11734736,3.15706509 6.13394225,3.10864081 4.85054738,2.61692291" id="Line" stroke="rgb(90, 145, 112)" stroke-width="0.25" stroke-linecap="round" stroke-linejoin="round" transform="translate(6.325655, 2.821460) rotate(-35.000000) translate(-6.325655, -2.821460) "></path><path d="M6.65094311,4.65649209 C5.99478483,3.88732689 4.87167906,3.80300232 3.28162582,4.4035184" id="Line" stroke="rgb(90, 145, 112)" stroke-width="0.25" stroke-linecap="round" stroke-linejoin="round" transform="translate(4.966284, 4.332540) rotate(32.000000) translate(-4.966284, -4.332540) "></path><path d="M5.04428849,1.4829866 C4.22252558,2.1283566 2.98670756,2.42182405 1.33683443,2.36338894" id="Line" stroke="rgb(90, 145, 112)" stroke-width="0.25" stroke-linecap="round" stroke-linejoin="round" transform="translate(3.190561, 1.926827) rotate(-35.000000) translate(-3.190561, -1.926827) "></path></g></g><g id="grow210" class="ungrown" data-svg-origin="0 0" style="opacity: 0; fill: rgb(0, 130, 0);" transform="matrix(0,0,0,0,57.868,150)"><g><path d="M0,3.5 C2,-6.64884814e-14 6,-2 10,3.5 C6,9 2,7 0,3.5 Z" id="Path" fill="rgb(0, 45, 52)" fill-rule="nonzero" transform="translate(5.000000, 3.500000) scale(1, -1) translate(-5.000000, -3.500000) "></path><path d="M0,3.5 C2.66666667,0.833333333 5.33333333,0.833333333 8,3.5 C5.33333333,6.16666667 2.66666667,6.16666667 0,3.5 Z" id="Path" fill="rgb(40, 95, 62)" fill-rule="nonzero" transform="translate(4.000000, 3.500000) scale(1, -1) translate(-4.000000, -3.500000) "></path><path d="M8.82226562,3.5 L0.223510742,3.5" id="Line" stroke="#A5BA80" stroke-width="0.5" stroke-linecap="round" stroke-linejoin="round"></path><path d="M7.80076271,2.76219576 C7.11734736,3.15706509 6.13394225,3.10864081 4.85054738,2.61692291" id="Line" stroke="rgb(90, 145, 112)" stroke-width="0.25" stroke-linecap="round" stroke-linejoin="round" transform="translate(6.325655, 2.821460) rotate(-35.000000) translate(-6.325655, -2.821460) "></path><path d="M6.65094311,4.65649209 C5.99478483,3.88732689 4.87167906,3.80300232 3.28162582,4.4035184" id="Line" stroke="rgb(90, 145, 112)" stroke-width="0.25" stroke-linecap="round" stroke-linejoin="round" transform="translate(4.966284, 4.332540) rotate(32.000000) translate(-4.966284, -4.332540) "></path><path d="M5.04428849,1.4829866 C4.22252558,2.1283566 2.98670756,2.42182405 1.33683443,2.36338894" id="Line" stroke="rgb(90, 145, 112)" stroke-width="0.25" stroke-linecap="round" stroke-linejoin="round" transform="translate(3.190561, 1.926827) rotate(-35.000000) translate(-3.190561, -1.926827) "></path></g></g><g id="grow211" class="ungrown" data-svg-origin="0 0" style="opacity: 0; fill: rgb(0, 138, 0);" transform="matrix(0,0,0,0,57.868,155)"><g><path d="M0,3.5 C2,-6.64884814e-14 6,-2 10,3.5 C6,9 2,7 0,3.5 Z" id="Path" fill="rgb(0, 45, 52)" fill-rule="nonzero" transform="translate(5.000000, 3.500000) scale(1, -1) translate(-5.000000, -3.500000) "></path><path d="M0,3.5 C2.66666667,0.833333333 5.33333333,0.833333333 8,3.5 C5.33333333,6.16666667 2.66666667,6.16666667 0,3.5 Z" id="Path" fill="rgb(40, 95, 62)" fill-rule="nonzero" transform="translate(4.000000, 3.500000) scale(1, -1) translate(-4.000000, -3.500000) "></path><path d="M8.82226562,3.5 L0.223510742,3.5" id="Line" stroke="#A5BA80" stroke-width="0.5" stroke-linecap="round" stroke-linejoin="round"></path><path d="M7.80076271,2.76219576 C7.11734736,3.15706509 6.13394225,3.10864081 4.85054738,2.61692291" id="Line" stroke="rgb(90, 145, 112)" stroke-width="0.25" stroke-linecap="round" stroke-linejoin="round" transform="translate(6.325655, 2.821460) rotate(-35.000000) translate(-6.325655, -2.821460) "></path><path d="M6.65094311,4.65649209 C5.99478483,3.88732689 4.87167906,3.80300232 3.28162582,4.4035184" id="Line" stroke="rgb(90, 145, 112)" stroke-width="0.25" stroke-linecap="round" stroke-linejoin="round" transform="translate(4.966284, 4.332540) rotate(32.000000) translate(-4.966284, -4.332540) "></path><path d="M5.04428849,1.4829866 C4.22252558,2.1283566 2.98670756,2.42182405 1.33683443,2.36338894" id="Line" stroke="rgb(90, 145, 112)" stroke-width="0.25" stroke-linecap="round" stroke-linejoin="round" transform="translate(3.190561, 1.926827) rotate(-35.000000) translate(-3.190561, -1.926827) "></path></g></g><g id="grow212" class="ungrown" data-svg-origin="0 0" style="opacity: 0; fill: rgb(0, 140, 0);" transform="matrix(0,0,0,0,57.7,160)"><g><path d="M0,3.5 C2,-6.64884814e-14 6,-2 10,3.5 C6,9 2,7 0,3.5 Z" id="Path" fill="rgb(0, 45, 52)" fill-rule="nonzero" transform="translate(5.000000, 3.500000) scale(1, -1) translate(-5.000000, -3.500000) "></path><path d="M0,3.5 C2.66666667,0.833333333 5.33333333,0.833333333 8,3.5 C5.33333333,6.16666667 2.66666667,6.16666667 0,3.5 Z" id="Path" fill="rgb(40, 95, 62)" fill-rule="nonzero" transform="translate(4.000000, 3.500000) scale(1, -1) translate(-4.000000, -3.500000) "></path><path d="M8.82226562,3.5 L0.223510742,3.5" id="Line" stroke="#A5BA80" stroke-width="0.5" stroke-linecap="round" stroke-linejoin="round"></path><path d="M7.80076271,2.76219576 C7.11734736,3.15706509 6.13394225,3.10864081 4.85054738,2.61692291" id="Line" stroke="rgb(90, 145, 112)" stroke-width="0.25" stroke-linecap="round" stroke-linejoin="round" transform="translate(6.325655, 2.821460) rotate(-35.000000) translate(-6.325655, -2.821460) "></path><path d="M6.65094311,4.65649209 C5.99478483,3.88732689 4.87167906,3.80300232 3.28162582,4.4035184" id="Line" stroke="rgb(90, 145, 112)" stroke-width="0.25" stroke-linecap="round" stroke-linejoin="round" transform="translate(4.966284, 4.332540) rotate(32.000000) translate(-4.966284, -4.332540) "></path><path d="M5.04428849,1.4829866 C4.22252558,2.1283566 2.98670756,2.42182405 1.33683443,2.36338894" id="Line" stroke="rgb(90, 145, 112)" stroke-width="0.25" stroke-linecap="round" stroke-linejoin="round" transform="translate(3.190561, 1.926827) rotate(-35.000000) translate(-3.190561, -1.926827) "></path></g></g><g id="grow213" class="ungrown" data-svg-origin="0 0" style="opacity: 0; fill: rgb(0, 160, 0);" transform="matrix(0,0,0,0,56.92,165)"><g><path d="M0,3.5 C2,-6.64884814e-14 6,-2 10,3.5 C6,9 2,7 0,3.5 Z" id="Path" fill="rgb(0, 45, 52)" fill-rule="nonzero" transform="translate(5.000000, 3.500000) scale(1, -1) translate(-5.000000, -3.500000) "></path><path d="M0,3.5 C2.66666667,0.833333333 5.33333333,0.833333333 8,3.5 C5.33333333,6.16666667 2.66666667,6.16666667 0,3.5 Z" id="Path" fill="rgb(40, 95, 62)" fill-rule="nonzero" transform="translate(4.000000, 3.500000) scale(1, -1) translate(-4.000000, -3.500000) "></path><path d="M8.82226562,3.5 L0.223510742,3.5" id="Line" stroke="#A5BA80" stroke-width="0.5" stroke-linecap="round" stroke-linejoin="round"></path><path d="M7.80076271,2.76219576 C7.11734736,3.15706509 6.13394225,3.10864081 4.85054738,2.61692291" id="Line" stroke="rgb(90, 145, 112)" stroke-width="0.25" stroke-linecap="round" stroke-linejoin="round" transform="translate(6.325655, 2.821460) rotate(-35.000000) translate(-6.325655, -2.821460) "></path><path d="M6.65094311,4.65649209 C5.99478483,3.88732689 4.87167906,3.80300232 3.28162582,4.4035184" id="Line" stroke="rgb(90, 145, 112)" stroke-width="0.25" stroke-linecap="round" stroke-linejoin="round" transform="translate(4.966284, 4.332540) rotate(32.000000) translate(-4.966284, -4.332540) "></path><path d="M5.04428849,1.4829866 C4.22252558,2.1283566 2.98670756,2.42182405 1.33683443,2.36338894" id="Line" stroke="rgb(90, 145, 112)" stroke-width="0.25" stroke-linecap="round" stroke-linejoin="round" transform="translate(3.190561, 1.926827) rotate(-35.000000) translate(-3.190561, -1.926827) "></path></g></g><g id="grow214" class="growing" data-svg-origin="0 0" style="opacity: 1; fill: rgb(0, 125, 0);" transform="matrix(1.64315,-3.09031,1.98663,1.05631,57.28,170)"><g><path d="M0,3.5 C2,-6.64884814e-14 6,-2 10,3.5 C6,9 2,7 0,3.5 Z" id="Path" fill="rgb(0, 45, 52)" fill-rule="nonzero" transform="translate(5.000000, 3.500000) scale(1, -1) translate(-5.000000, -3.500000) "></path><path d="M0,3.5 C2.66666667,0.833333333 5.33333333,0.833333333 8,3.5 C5.33333333,6.16666667 2.66666667,6.16666667 0,3.5 Z" id="Path" fill="rgb(40, 95, 62)" fill-rule="nonzero" transform="translate(4.000000, 3.500000) scale(1, -1) translate(-4.000000, -3.500000) "></path><path d="M8.82226562,3.5 L0.223510742,3.5" id="Line" stroke="#A5BA80" stroke-width="0.5" stroke-linecap="round" stroke-linejoin="round"></path><path d="M7.80076271,2.76219576 C7.11734736,3.15706509 6.13394225,3.10864081 4.85054738,2.61692291" id="Line" stroke="rgb(90, 145, 112)" stroke-width="0.25" stroke-linecap="round" stroke-linejoin="round" transform="translate(6.325655, 2.821460) rotate(-35.000000) translate(-6.325655, -2.821460) "></path><path d="M6.65094311,4.65649209 C5.99478483,3.88732689 4.87167906,3.80300232 3.28162582,4.4035184" id="Line" stroke="rgb(90, 145, 112)" stroke-width="0.25" stroke-linecap="round" stroke-linejoin="round" transform="translate(4.966284, 4.332540) rotate(32.000000) translate(-4.966284, -4.332540) "></path><path d="M5.04428849,1.4829866 C4.22252558,2.1283566 2.98670756,2.42182405 1.33683443,2.36338894" id="Line" stroke="rgb(90, 145, 112)" stroke-width="0.25" stroke-linecap="round" stroke-linejoin="round" transform="translate(3.190561, 1.926827) rotate(-35.000000) translate(-3.190561, -1.926827) "></path></g></g><g id="grow215" class="" data-svg-origin="0 0" style="opacity: 1; fill: rgb(0, 131, 0);" transform="matrix(1.63436,-3.20762,2.04931,1.04417,56.620000000000005,175)"><g><path d="M0,3.5 C2,-6.64884814e-14 6,-2 10,3.5 C6,9 2,7 0,3.5 Z" id="Path" fill="rgb(0, 45, 52)" fill-rule="nonzero" transform="translate(5.000000, 3.500000) scale(1, -1) translate(-5.000000, -3.500000) "></path><path d="M0,3.5 C2.66666667,0.833333333 5.33333333,0.833333333 8,3.5 C5.33333333,6.16666667 2.66666667,6.16666667 0,3.5 Z" id="Path" fill="rgb(40, 95, 62)" fill-rule="nonzero" transform="translate(4.000000, 3.500000) scale(1, -1) translate(-4.000000, -3.500000) "></path><path d="M8.82226562,3.5 L0.223510742,3.5" id="Line" stroke="#A5BA80" stroke-width="0.5" stroke-linecap="round" stroke-linejoin="round"></path><path d="M7.80076271,2.76219576 C7.11734736,3.15706509 6.13394225,3.10864081 4.85054738,2.61692291" id="Line" stroke="rgb(90, 145, 112)" stroke-width="0.25" stroke-linecap="round" stroke-linejoin="round" transform="translate(6.325655, 2.821460) rotate(-35.000000) translate(-6.325655, -2.821460) "></path><path d="M6.65094311,4.65649209 C5.99478483,3.88732689 4.87167906,3.80300232 3.28162582,4.4035184" id="Line" stroke="rgb(90, 145, 112)" stroke-width="0.25" stroke-linecap="round" stroke-linejoin="round" transform="translate(4.966284, 4.332540) rotate(32.000000) translate(-4.966284, -4.332540) "></path><path d="M5.04428849,1.4829866 C4.22252558,2.1283566 2.98670756,2.42182405 1.33683443,2.36338894" id="Line" stroke="rgb(90, 145, 112)" stroke-width="0.25" stroke-linecap="round" stroke-linejoin="round" transform="translate(3.190561, 1.926827) rotate(-35.000000) translate(-3.190561, -1.926827) "></path></g></g><g id="grow216" class="" data-svg-origin="0 0" style="opacity: 1; fill: rgb(0, 115, 0);" transform="matrix(-1.50492,-3.38011,2.14683,-0.95583,56.2,180)"><g><path d="M0,3.5 C2,-6.64884814e-14 6,-2 10,3.5 C6,9 2,7 0,3.5 Z" id="Path" fill="rgb(0, 45, 52)" fill-rule="nonzero" transform="translate(5.000000, 3.500000) scale(1, -1) translate(-5.000000, -3.500000) "></path><path d="M0,3.5 C2.66666667,0.833333333 5.33333333,0.833333333 8,3.5 C5.33333333,6.16666667 2.66666667,6.16666667 0,3.5 Z" id="Path" fill="rgb(40, 95, 62)" fill-rule="nonzero" transform="translate(4.000000, 3.500000) scale(1, -1) translate(-4.000000, -3.500000) "></path><path d="M8.82226562,3.5 L0.223510742,3.5" id="Line" stroke="#A5BA80" stroke-width="0.5" stroke-linecap="round" stroke-linejoin="round"></path><path d="M7.80076271,2.76219576 C7.11734736,3.15706509 6.13394225,3.10864081 4.85054738,2.61692291" id="Line" stroke="rgb(90, 145, 112)" stroke-width="0.25" stroke-linecap="round" stroke-linejoin="round" transform="translate(6.325655, 2.821460) rotate(-35.000000) translate(-6.325655, -2.821460) "></path><path d="M6.65094311,4.65649209 C5.99478483,3.88732689 4.87167906,3.80300232 3.28162582,4.4035184" id="Line" stroke="rgb(90, 145, 112)" stroke-width="0.25" stroke-linecap="round" stroke-linejoin="round" transform="translate(4.966284, 4.332540) rotate(32.000000) translate(-4.966284, -4.332540) "></path><path d="M5.04428849,1.4829866 C4.22252558,2.1283566 2.98670756,2.42182405 1.33683443,2.36338894" id="Line" stroke="rgb(90, 145, 112)" stroke-width="0.25" stroke-linecap="round" stroke-linejoin="round" transform="translate(3.190561, 1.926827) rotate(-35.000000) translate(-3.190561, -1.926827) "></path></g></g><g id="grow217" class="" data-svg-origin="0 0" style="opacity: 1; fill: rgb(0, 143, 0);" transform="matrix(3.49791,-1.48477,0.93775,2.20921,55.660000000000004,185)"><g><path d="M0,3.5 C2,-6.64884814e-14 6,-2 10,3.5 C6,9 2,7 0,3.5 Z" id="Path" fill="rgb(0, 45, 52)" fill-rule="nonzero" transform="translate(5.000000, 3.500000) scale(1, -1) translate(-5.000000, -3.500000) "></path><path d="M0,3.5 C2.66666667,0.833333333 5.33333333,0.833333333 8,3.5 C5.33333333,6.16666667 2.66666667,6.16666667 0,3.5 Z" id="Path" fill="rgb(40, 95, 62)" fill-rule="nonzero" transform="translate(4.000000, 3.500000) scale(1, -1) translate(-4.000000, -3.500000) "></path><path d="M8.82226562,3.5 L0.223510742,3.5" id="Line" stroke="#A5BA80" stroke-width="0.5" stroke-linecap="round" stroke-linejoin="round"></path><path d="M7.80076271,2.76219576 C7.11734736,3.15706509 6.13394225,3.10864081 4.85054738,2.61692291" id="Line" stroke="rgb(90, 145, 112)" stroke-width="0.25" stroke-linecap="round" stroke-linejoin="round" transform="translate(6.325655, 2.821460) rotate(-35.000000) translate(-6.325655, -2.821460) "></path><path d="M6.65094311,4.65649209 C5.99478483,3.88732689 4.87167906,3.80300232 3.28162582,4.4035184" id="Line" stroke="rgb(90, 145, 112)" stroke-width="0.25" stroke-linecap="round" stroke-linejoin="round" transform="translate(4.966284, 4.332540) rotate(32.000000) translate(-4.966284, -4.332540) "></path><path d="M5.04428849,1.4829866 C4.22252558,2.1283566 2.98670756,2.42182405 1.33683443,2.36338894" id="Line" stroke="rgb(90, 145, 112)" stroke-width="0.25" stroke-linecap="round" stroke-linejoin="round" transform="translate(3.190561, 1.926827) rotate(-35.000000) translate(-3.190561, -1.926827) "></path></g></g><g id="grow218" class="" data-svg-origin="0 0" style="opacity: 1; fill: rgb(0, 160, 0);" transform="matrix(-3.76711,-1.00939,0.6341,-2.36651,55.228,190)"><g><path d="M0,3.5 C2,-6.64884814e-14 6,-2 10,3.5 C6,9 2,7 0,3.5 Z" id="Path" fill="rgb(0, 45, 52)" fill-rule="nonzero" transform="translate(5.000000, 3.500000) scale(1, -1) translate(-5.000000, -3.500000) "></path><path d="M0,3.5 C2.66666667,0.833333333 5.33333333,0.833333333 8,3.5 C5.33333333,6.16666667 2.66666667,6.16666667 0,3.5 Z" id="Path" fill="rgb(40, 95, 62)" fill-rule="nonzero" transform="translate(4.000000, 3.500000) scale(1, -1) translate(-4.000000, -3.500000) "></path><path d="M8.82226562,3.5 L0.223510742,3.5" id="Line" stroke="#A5BA80" stroke-width="0.5" stroke-linecap="round" stroke-linejoin="round"></path><path d="M7.80076271,2.76219576 C7.11734736,3.15706509 6.13394225,3.10864081 4.85054738,2.61692291" id="Line" stroke="rgb(90, 145, 112)" stroke-width="0.25" stroke-linecap="round" stroke-linejoin="round" transform="translate(6.325655, 2.821460) rotate(-35.000000) translate(-6.325655, -2.821460) "></path><path d="M6.65094311,4.65649209 C5.99478483,3.88732689 4.87167906,3.80300232 3.28162582,4.4035184" id="Line" stroke="rgb(90, 145, 112)" stroke-width="0.25" stroke-linecap="round" stroke-linejoin="round" transform="translate(4.966284, 4.332540) rotate(32.000000) translate(-4.966284, -4.332540) "></path><path d="M5.04428849,1.4829866 C4.22252558,2.1283566 2.98670756,2.42182405 1.33683443,2.36338894" id="Line" stroke="rgb(90, 145, 112)" stroke-width="0.25" stroke-linecap="round" stroke-linejoin="round" transform="translate(3.190561, 1.926827) rotate(-35.000000) translate(-3.190561, -1.926827) "></path></g></g><g id="grow219" class="" data-svg-origin="0 0" style="opacity: 1; fill: rgb(0, 130, 0);" transform="matrix(0.62573,-3.95075,2.46922,0.39108,55.354,195)"><g><path d="M0,3.5 C2,-6.64884814e-14 6,-2 10,3.5 C6,9 2,7 0,3.5 Z" id="Path" fill="rgb(0, 45, 52)" fill-rule="nonzero" transform="translate(5.000000, 3.500000) scale(1, -1) translate(-5.000000, -3.500000) "></path><path d="M0,3.5 C2.66666667,0.833333333 5.33333333,0.833333333 8,3.5 C5.33333333,6.16666667 2.66666667,6.16666667 0,3.5 Z" id="Path" fill="rgb(40, 95, 62)" fill-rule="nonzero" transform="translate(4.000000, 3.500000) scale(1, -1) translate(-4.000000, -3.500000) "></path><path d="M8.82226562,3.5 L0.223510742,3.5" id="Line" stroke="#A5BA80" stroke-width="0.5" stroke-linecap="round" stroke-linejoin="round"></path><path d="M7.80076271,2.76219576 C7.11734736,3.15706509 6.13394225,3.10864081 4.85054738,2.61692291" id="Line" stroke="rgb(90, 145, 112)" stroke-width="0.25" stroke-linecap="round" stroke-linejoin="round" transform="translate(6.325655, 2.821460) rotate(-35.000000) translate(-6.325655, -2.821460) "></path><path d="M6.65094311,4.65649209 C5.99478483,3.88732689 4.87167906,3.80300232 3.28162582,4.4035184" id="Line" stroke="rgb(90, 145, 112)" stroke-width="0.25" stroke-linecap="round" stroke-linejoin="round" transform="translate(4.966284, 4.332540) rotate(32.000000) translate(-4.966284, -4.332540) "></path><path d="M5.04428849,1.4829866 C4.22252558,2.1283566 2.98670756,2.42182405 1.33683443,2.36338894" id="Line" stroke="rgb(90, 145, 112)" stroke-width="0.25" stroke-linecap="round" stroke-linejoin="round" transform="translate(3.190561, 1.926827) rotate(-35.000000) translate(-3.190561, -1.926827) "></path></g></g><g id="grow220" class="" data-svg-origin="0 0" style="opacity: 1; fill: rgb(0, 123, 0);" transform="matrix(-3.82767,-1.4693,0.91383,-2.38063,55.461999999999996,200)"><g><path d="M0,3.5 C2,-6.64884814e-14 6,-2 10,3.5 C6,9 2,7 0,3.5 Z" id="Path" fill="rgb(0, 45, 52)" fill-rule="nonzero" transform="translate(5.000000, 3.500000) scale(1, -1) translate(-5.000000, -3.500000) "></path><path d="M0,3.5 C2.66666667,0.833333333 5.33333333,0.833333333 8,3.5 C5.33333333,6.16666667 2.66666667,6.16666667 0,3.5 Z" id="Path" fill="rgb(40, 95, 62)" fill-rule="nonzero" transform="translate(4.000000, 3.500000) scale(1, -1) translate(-4.000000, -3.500000) "></path><path d="M8.82226562,3.5 L0.223510742,3.5" id="Line" stroke="#A5BA80" stroke-width="0.5" stroke-linecap="round" stroke-linejoin="round"></path><path d="M7.80076271,2.76219576 C7.11734736,3.15706509 6.13394225,3.10864081 4.85054738,2.61692291" id="Line" stroke="rgb(90, 145, 112)" stroke-width="0.25" stroke-linecap="round" stroke-linejoin="round" transform="translate(6.325655, 2.821460) rotate(-35.000000) translate(-6.325655, -2.821460) "></path><path d="M6.65094311,4.65649209 C5.99478483,3.88732689 4.87167906,3.80300232 3.28162582,4.4035184" id="Line" stroke="rgb(90, 145, 112)" stroke-width="0.25" stroke-linecap="round" stroke-linejoin="round" transform="translate(4.966284, 4.332540) rotate(32.000000) translate(-4.966284, -4.332540) "></path><path d="M5.04428849,1.4829866 C4.22252558,2.1283566 2.98670756,2.42182405 1.33683443,2.36338894" id="Line" stroke="rgb(90, 145, 112)" stroke-width="0.25" stroke-linecap="round" stroke-linejoin="round" transform="translate(3.190561, 1.926827) rotate(-35.000000) translate(-3.190561, -1.926827) "></path></g></g><g id="grow221" class="" data-svg-origin="0 0" style="opacity: 1; fill: rgb(0, 111, 0);" transform="matrix(-3.26401,-2.64314,1.63623,-2.02057,55.221999999999994,205)"><g><path d="M0,3.5 C2,-6.64884814e-14 6,-2 10,3.5 C6,9 2,7 0,3.5 Z" id="Path" fill="rgb(0, 45, 52)" fill-rule="nonzero" transform="translate(5.000000, 3.500000) scale(1, -1) translate(-5.000000, -3.500000) "></path><path d="M0,3.5 C2.66666667,0.833333333 5.33333333,0.833333333 8,3.5 C5.33333333,6.16666667 2.66666667,6.16666667 0,3.5 Z" id="Path" fill="rgb(40, 95, 62)" fill-rule="nonzero" transform="translate(4.000000, 3.500000) scale(1, -1) translate(-4.000000, -3.500000) "></path><path d="M8.82226562,3.5 L0.223510742,3.5" id="Line" stroke="#A5BA80" stroke-width="0.5" stroke-linecap="round" stroke-linejoin="round"></path><path d="M7.80076271,2.76219576 C7.11734736,3.15706509 6.13394225,3.10864081 4.85054738,2.61692291" id="Line" stroke="rgb(90, 145, 112)" stroke-width="0.25" stroke-linecap="round" stroke-linejoin="round" transform="translate(6.325655, 2.821460) rotate(-35.000000) translate(-6.325655, -2.821460) "></path><path d="M6.65094311,4.65649209 C5.99478483,3.88732689 4.87167906,3.80300232 3.28162582,4.4035184" id="Line" stroke="rgb(90, 145, 112)" stroke-width="0.25" stroke-linecap="round" stroke-linejoin="round" transform="translate(4.966284, 4.332540) rotate(32.000000) translate(-4.966284, -4.332540) "></path><path d="M5.04428849,1.4829866 C4.22252558,2.1283566 2.98670756,2.42182405 1.33683443,2.36338894" id="Line" stroke="rgb(90, 145, 112)" stroke-width="0.25" stroke-linecap="round" stroke-linejoin="round" transform="translate(3.190561, 1.926827) rotate(-35.000000) translate(-3.190561, -1.926827) "></path></g></g><g id="grow222" class="" data-svg-origin="0 0" style="opacity: 1; fill: rgb(0, 140, 0);" transform="matrix(4.11211,-1.25719,0.77478,2.5342,55.077999999999996,210)"><g><path d="M0,3.5 C2,-6.64884814e-14 6,-2 10,3.5 C6,9 2,7 0,3.5 Z" id="Path" fill="rgb(0, 45, 52)" fill-rule="nonzero" transform="translate(5.000000, 3.500000) scale(1, -1) translate(-5.000000, -3.500000) "></path><path d="M0,3.5 C2.66666667,0.833333333 5.33333333,0.833333333 8,3.5 C5.33333333,6.16666667 2.66666667,6.16666667 0,3.5 Z" id="Path" fill="rgb(40, 95, 62)" fill-rule="nonzero" transform="translate(4.000000, 3.500000) scale(1, -1) translate(-4.000000, -3.500000) "></path><path d="M8.82226562,3.5 L0.223510742,3.5" id="Line" stroke="#A5BA80" stroke-width="0.5" stroke-linecap="round" stroke-linejoin="round"></path><path d="M7.80076271,2.76219576 C7.11734736,3.15706509 6.13394225,3.10864081 4.85054738,2.61692291" id="Line" stroke="rgb(90, 145, 112)" stroke-width="0.25" stroke-linecap="round" stroke-linejoin="round" transform="translate(6.325655, 2.821460) rotate(-35.000000) translate(-6.325655, -2.821460) "></path><path d="M6.65094311,4.65649209 C5.99478483,3.88732689 4.87167906,3.80300232 3.28162582,4.4035184" id="Line" stroke="rgb(90, 145, 112)" stroke-width="0.25" stroke-linecap="round" stroke-linejoin="round" transform="translate(4.966284, 4.332540) rotate(32.000000) translate(-4.966284, -4.332540) "></path><path d="M5.04428849,1.4829866 C4.22252558,2.1283566 2.98670756,2.42182405 1.33683443,2.36338894" id="Line" stroke="rgb(90, 145, 112)" stroke-width="0.25" stroke-linecap="round" stroke-linejoin="round" transform="translate(3.190561, 1.926827) rotate(-35.000000) translate(-3.190561, -1.926827) "></path></g></g><g id="grow223" class="" data-svg-origin="0 0" style="opacity: 1; fill: rgb(0, 121, 0);" transform="matrix(3.60426,-2.52373,1.54865,2.21171,54.952,215)"><g><path d="M0,3.5 C2,-6.64884814e-14 6,-2 10,3.5 C6,9 2,7 0,3.5 Z" id="Path" fill="rgb(0, 45, 52)" fill-rule="nonzero" transform="translate(5.000000, 3.500000) scale(1, -1) translate(-5.000000, -3.500000) "></path><path d="M0,3.5 C2.66666667,0.833333333 5.33333333,0.833333333 8,3.5 C5.33333333,6.16666667 2.66666667,6.16666667 0,3.5 Z" id="Path" fill="rgb(40, 95, 62)" fill-rule="nonzero" transform="translate(4.000000, 3.500000) scale(1, -1) translate(-4.000000, -3.500000) "></path><path d="M8.82226562,3.5 L0.223510742,3.5" id="Line" stroke="#A5BA80" stroke-width="0.5" stroke-linecap="round" stroke-linejoin="round"></path><path d="M7.80076271,2.76219576 C7.11734736,3.15706509 6.13394225,3.10864081 4.85054738,2.61692291" id="Line" stroke="rgb(90, 145, 112)" stroke-width="0.25" stroke-linecap="round" stroke-linejoin="round" transform="translate(6.325655, 2.821460) rotate(-35.000000) translate(-6.325655, -2.821460) "></path><path d="M6.65094311,4.65649209 C5.99478483,3.88732689 4.87167906,3.80300232 3.28162582,4.4035184" id="Line" stroke="rgb(90, 145, 112)" stroke-width="0.25" stroke-linecap="round" stroke-linejoin="round" transform="translate(4.966284, 4.332540) rotate(32.000000) translate(-4.966284, -4.332540) "></path><path d="M5.04428849,1.4829866 C4.22252558,2.1283566 2.98670756,2.42182405 1.33683443,2.36338894" id="Line" stroke="rgb(90, 145, 112)" stroke-width="0.25" stroke-linecap="round" stroke-linejoin="round" transform="translate(3.190561, 1.926827) rotate(-35.000000) translate(-3.190561, -1.926827) "></path></g></g></g></g><g id="pottery"><g><polyline id="Fill-318" fill="#96D67C" points="10.18 29.907 20.854 110.212 99.13 110.212 110.598 23.929 9.386 23.929 10.18 29.907"></polyline><polyline id="Fill-319" fill="#CDEAAC" points="49.379 2.84217094e-14 -3.55271368e-14 2.84217094e-14 3.547 23.929 116.436 23.929 119.984 2.84217094e-14 49.379 2.84217094e-14"></polyline><ellipse id="Oval" fill="#F3DCDC" transform="translate(37.500000, 56.500000) rotate(-34.000000) translate(-37.500000, -56.500000) " cx="37.5" cy="56.5" rx="8.5" ry="5.5"></ellipse><ellipse id="Oval" fill="#F3DCDC" transform="translate(85.500000, 57.500000) scale(-1, 1) rotate(-22.000000) translate(-85.500000, -57.500000) " cx="85.5" cy="57.5" rx="8.5" ry="5.5"></ellipse><path d="M43,64 C55.9816184,72 67.9816184,72 79,64" id="Line-4" stroke="#000000" stroke-width="3" stroke-linecap="round" fill-opacity="0" fill="#FFFFFF"></path><path d="M51.6339746,49.8276616 L51.6339746,49.8276616 C52.9406943,50.1777961 53.7161599,51.5209419 53.3660254,52.8276616 L53.3660254,52.8276616 C53.0158909,54.1343814 51.6727452,54.9098469 50.3660254,54.5597124 L50.3660254,54.5597124 C49.0593057,54.2095779 48.2838401,52.8664322 48.6339746,51.5597124 L48.6339746,51.5597124 C48.9841091,50.2529927 50.3272548,49.4775271 51.6339746,49.8276616 Z" id="Rectangle" fill="#000000"></path><path d="M68.6339746,49.7996626 L68.6339746,49.7996626 C69.9406943,50.1497971 70.7161599,51.4929428 70.3660254,52.7996626 L70.3660254,52.7996626 C70.0158909,54.1063823 68.6727452,54.8818479 67.3660254,54.5317134 L67.3660254,54.5317134 C66.0593057,54.1815789 65.2838401,52.8384331 65.6339746,51.5317134 L65.6339746,51.5317134 C65.9841091,50.2249936 67.3272548,49.4495281 68.6339746,49.7996626 Z" id="Rectangle" fill="#000000"></path></g></g></svg>